<svg width="72" height="72" viewBox="0 0 72 72" fill="none" xmlns="http://www.w3.org/2000/svg">
<g clip-path="url(#clip0_3186_28697)">
<mask id="mask0_3186_28697" style="mask-type:alpha" maskUnits="userSpaceOnUse" x="3" y="0" width="66" height="72">
<path d="M32 1.3094C34.4752 -0.119662 37.5248 -0.119661 40 1.3094L64.0429 15.1906C66.5182 16.6197 68.0429 19.2607 68.0429 22.1188V49.8812C68.0429 52.7393 66.5182 55.3803 64.0429 56.8094L40 70.6906C37.5248 72.1197 34.4752 72.1197 32 70.6906L7.95706 56.8094C5.48185 55.3803 3.95706 52.7393 3.95706 49.8812V22.1188C3.95706 19.2607 5.48185 16.6197 7.95706 15.1906L32 1.3094Z" fill="#D9D9D9"/>
</mask>
<g mask="url(#mask0_3186_28697)">
<path d="M32 1.3094C34.4752 -0.119662 37.5248 -0.119661 40 1.3094L64.0429 15.1906C66.5182 16.6197 68.0429 19.2607 68.0429 22.1188V49.8812C68.0429 52.7393 66.5182 55.3803 64.0429 56.8094L40 70.6906C37.5248 72.1197 34.4752 72.1197 32 70.6906L7.95706 56.8094C5.48185 55.3803 3.95706 52.7393 3.95706 49.8812V22.1188C3.95706 19.2607 5.48185 16.6197 7.95706 15.1906L32 1.3094Z" fill="white"/>
<path fill-rule="evenodd" clip-rule="evenodd" d="M69.1428 93.7584L69.3763 93.6538L69.7393 93.4707L70.5433 91.6138L102.598 35.5915L69.1947 -22C69.2466 -22.157 68.9872 -22.3923 68.9872 -22.3923L67.7683 -23.2031H36.7505L4.6954 -23.1508L3.03559 -22.3139H2.98372L-30.6016 36.0623L2.85405 94.4907L4.74727 95.1969L67.3793 94.5953L69.1428 93.7584ZM46.6057 26.8821C46.6576 27.0914 46.7354 27.3268 46.7872 27.536C47.5134 26.9083 48.2655 26.3068 48.9917 25.6791C50.2884 24.3975 51.5592 23.1421 52.8559 21.8605C53.9192 20.579 55.0085 19.3236 56.0718 18.042C56.8239 17.0482 57.576 16.0281 58.354 15.0343C59.2877 13.6481 60.1954 12.262 61.1291 10.8758C61.9071 9.51576 62.6592 8.12959 63.4372 6.76957C64.0856 5.33109 64.708 3.86646 65.3564 2.42798C65.7973 1.17257 66.2641 -0.0828247 66.705 -1.36438L67.7942 -5.75828C68.1314 -7.61523 68.4945 -9.47218 68.8316 -11.303L69.1688 -15.0953V26.5683L61.933 26.856L58.0428 27.4052L54.5676 28.1375L51.9742 28.7652L49.0954 29.6545L48.5508 29.9683L48.473 30.3345H48.9398L49.8475 29.9683L51.2739 29.576L53.608 28.9483C53.608 28.9483 55.7347 28.4252 55.8125 28.4252C55.8903 28.4252 57.965 27.9283 57.965 27.9283L60.1435 27.536C60.7919 27.4314 61.4143 27.2483 62.0886 27.2483L69.2206 27.0652V44.5885C69.2206 44.5885 67.8202 44.7455 66.8606 44.7716C65.8751 44.7978 64.2671 44.6931 63.6706 44.6147C62.737 44.4839 61.933 44.1178 61.6737 43.987C61.6996 43.9085 61.6996 43.8039 61.6996 43.6993C61.6996 42.9931 61.1031 42.4962 60.377 42.4962C59.7027 42.4962 59.1321 42.967 59.0802 43.5947H58.8209C58.8987 43.3331 58.9505 43.0716 58.9505 42.7839C58.9505 41.2669 57.6538 39.9854 56.1756 39.9854C54.827 39.9854 53.6599 41.0316 53.4524 42.3654L53.4307 42.3622C52.7058 42.2539 50.4362 41.915 49.666 41.3454C49.1732 40.9792 48.9398 40.7962 48.8361 40.6916L49.3548 39.7238L51.248 35.9576L44.6347 47.8578L42.0412 52.8532L37.8657 60.4903H37.7879L39.6293 39.1485L39.759 37.6054L40.0961 33.5253L42.1449 32.2176L41.9634 32.0084L40.122 33.1592L40.4592 29.1576L51.1183 35.5653L40.5111 28.8176L37.4508 10.9542L41.4966 18.2774L43.4676 22.0175L45.8536 26.7775L50.4959 34.3884L45.9314 26.3852L43.5973 21.599L37.0877 9.33269L33.4569 15.2958L32.4195 12.8112L31.797 11.1635L30.5263 8.23421L29.2555 5.74956L28.4255 4.18031L27.1548 1.82643L25.7024 -0.579754L23.8611 -3.43056L22.4347 -5.39212L21.0342 -7.24907L19.5041 -9.10602L17.559 -11.303L14.8358 -13.8399L12.4758 -15.9323L10.0639 -17.9461L8.1447 -19.4631L6.53676 -20.6662L5.62905 -21.2939L4.41012 -21.9477L4.98069 -22.0785L27.3622 -22.0262C27.44 -17.1877 31.0968 -13.2645 35.6094 -13.2645C40.122 -13.2645 43.7788 -17.1615 43.8566 -21.9739H46.8391L68.6241 -21.817C68.5723 -21.7908 68.4945 -21.7385 68.4167 -21.6862C65.7195 -19.8292 62.9704 -17.1615 60.1435 -14.8861C59.0284 -13.8922 57.9132 -12.7938 56.798 -11.7737C54.8529 -9.6291 53.1412 -7.90292 50.8071 -5.20904C42.897 5.72341 42.1709 8.62652 40.1998 14.982C40.148 15.1651 40.6148 15.3481 40.6407 15.2174C44.7384 2.5326 50.1069 -3.95365 58.8468 -13.1338C59.8064 -13.9445 60.74 -14.9907 61.6996 -15.8015C62.5814 -16.5338 63.4632 -17.24 64.3449 -17.9723C64.9155 -18.4169 67.5608 -20.6923 68.7538 -21.4769C68.9354 -21.6077 69.0391 -21.66 69.091 -21.7123V-15.9846L68.3129 -10.7799C68.1055 -9.65526 67.872 -8.53062 67.6646 -7.40599C67.3793 -6.17675 67.1199 -4.9475 66.8347 -3.71826C65.927 -1.23361 64.9933 1.22489 64.0856 3.70953C63.126 5.59263 62.1405 7.50189 61.1809 9.38499C60.2991 10.745 59.4174 12.105 58.5615 13.465C57.4463 14.982 56.3052 16.5251 55.19 18.042C53.997 19.402 52.804 20.7882 51.637 22.1482L51.6361 22.1491C50.6249 23.1427 49.6138 24.1362 48.5767 25.1298C47.9562 25.6774 47.284 26.277 46.6118 26.8767L46.6057 26.8821ZM44.6865 63.5241C41.4706 56.4364 41.5744 54.3702 41.5744 54.3702L44.5828 48.3286L47.2022 43.5162L48.5248 41.0316C48.6545 41.2146 49.0695 41.5808 50.444 42.0516C51.9223 42.5485 52.9337 42.6793 53.3227 42.7054C53.3227 44.2224 54.6195 45.4516 56.0977 45.4516C56.5646 45.4516 57.0314 45.3208 57.4204 45.1116L57.5501 45.7655C57.5501 45.7655 57.576 48.1978 57.8613 50.0286C58.1439 51.8425 59.1394 52.7835 59.9649 53.5638L59.9879 53.5856C60.8178 54.3963 62.9185 56.4625 63.541 57.1687C64.1634 57.8748 64.2671 58.2149 64.2671 58.2149C64.2671 58.2149 64.8377 59.6795 65.0192 62.0334C65.123 63.6811 64.7858 64.3349 64.5524 64.6226C64.4227 64.5965 64.319 64.5703 64.1893 64.5703C63.7225 64.5703 63.2557 64.8057 62.8926 65.1719L60.9994 61.0657L58.9505 57.2471L56.5646 53.8471L52.8559 49.0347L50.1587 46.1316L47.5393 43.3854L47.3319 43.8824L48.8879 45.5039L52.3372 49.4532L55.2678 53.0886L57.9391 56.7502L59.7545 59.9933C59.7545 59.9933 61.9849 64.2042 62.0108 64.4395C62.0368 64.6226 62.322 65.3549 62.4776 65.7473C62.322 66.0611 62.2183 66.4011 62.2183 66.715C62.2183 67.7088 62.8926 68.6765 64.0337 68.7812C64.0337 68.7812 66.8087 74.7966 68.2092 83.1136C68.7798 86.4614 69.0391 88.2922 69.1428 89.286V90.3845V91.7184C67.6905 90.9076 63.9041 88.6583 60.8697 86.226C57.0314 83.1398 55.3975 81.4136 53.634 79.2167C52.7522 78.1182 51.0405 75.8689 49.3807 72.8873C47.8765 70.1673 46.2167 66.898 44.6865 63.5241ZM68.6501 92.6599L68.8057 93.0522L46.865 93.183C45.8795 89.286 42.2746 86.4091 37.9435 86.4091C33.5606 86.4091 29.8779 89.3906 28.9702 93.3661L4.30639 93.6538L4.0989 93.5753C4.59166 93.2615 8.819 90.6199 13.954 85.7029C17.922 81.9105 21.916 77.909 24.8466 74.0381C25.9358 72.5997 26.7657 71.1612 27.5697 69.7489C30.4744 64.5965 31.5896 62.0595 32.212 60.2549C32.7307 58.7118 33.3531 55.7302 33.5347 54.841L33.7681 55.2071L37.0099 60.4903L37.6842 61.4057C37.8139 61.4057 39.759 57.9533 39.759 57.9533L40.9519 55.5733C40.9519 55.5733 42.1449 59.3395 42.3006 59.7318C42.4821 60.1241 43.6232 62.7134 43.6232 62.7134C43.6232 62.7134 45.3608 66.7411 46.5798 69.0165C48.084 71.8412 50.3143 75.8428 52.1038 78.2751C52.9337 79.3997 53.8933 80.3936 54.8788 81.5967C58.4059 85.8075 68.6501 92.6599 68.6501 92.6599ZM23.9648 45.3732C25.2615 44.1962 26.0136 43.7777 26.3248 43.6208L27.3104 45.1639L29.1258 47.9624L31.797 52.1471L33.1456 54.2133C33.0419 54.8933 32.7048 56.8287 32.4454 57.7179C32.1342 58.7903 30.8634 62.1118 30.8634 62.1118C30.8634 62.1118 28.1403 68.0227 26.4026 70.8212C24.665 73.6197 21.0342 77.9089 20.7748 78.1705C20.5155 78.432 16.8587 82.3552 16.729 82.5382C16.5994 82.7213 6.51083 92.1107 3.76176 93.4445L2.87998 93.1046V91.9799L3.65802 86.4091C3.65802 86.4091 4.46199 81.7275 5.11036 78.3536C5.75872 74.9797 5.83653 75.9735 6.66644 72.652C6.82204 71.9981 7.13326 71.2658 7.49634 70.4289C8.45592 68.1011 10.0379 65.0934 11.6977 61.6672C12.2164 60.5687 13.1501 59.1041 13.7725 58.0841C15.7695 54.8933 17.8961 52.3563 19.2966 50.4994C21.1898 48.0147 22.8237 46.3932 23.9648 45.3732ZM6.32928 72.5473C4.41012 78.589 3.24306 85.0752 2.87998 88.2399L2.93185 44.6147C3.70988 44.5885 6.53676 44.5362 10.1676 44.1962C14.4727 43.8039 17.8442 43.2024 20.5155 42.5485C22.5384 42.0516 24.0945 41.3716 24.7428 41.0839L25.9877 43.0716C25.8062 43.2547 25.469 43.5423 24.8984 44.0393C24.6391 44.2747 24.2241 44.6408 23.8351 45.007C23.2386 45.6085 22.5643 46.1316 22.0197 46.6809C21.4751 47.2039 21.0342 47.7532 20.4896 48.407C18.9076 50.264 16.7809 52.8271 14.8877 55.5994C12.8907 58.5287 11.1531 61.6672 9.70078 64.4395C8.50779 66.7411 7.26292 69.5919 6.32928 72.5473ZM57.991 46.9947C57.991 45.6347 58.0428 44.9547 58.0947 44.667C58.3022 44.4316 58.4837 44.1962 58.5875 43.9085H59.0024C59.1321 44.4839 59.6508 44.9024 60.2991 44.9024C60.7919 44.9024 61.2068 44.6408 61.4403 44.2747C61.7255 44.4316 62.737 44.9024 64.5784 44.9808C66.316 45.0854 68.3907 45.0331 69.1428 45.007V86.4614C68.9094 84.6829 68.3907 81.0998 67.7424 78.5105C66.8347 74.9012 65.8491 72.312 65.8491 72.312L64.708 68.8073C65.6935 68.5719 66.29 67.6827 66.29 66.7673C66.29 66.218 66.0307 65.6688 65.6157 65.2503C65.5898 64.8319 65.5639 64.0734 65.5379 63.6811C65.512 63.1057 65.2008 60.6733 65.0711 59.7841C64.8896 58.5287 64.8896 58.581 64.4746 57.7441C64.1634 57.0902 62.1924 55.181 62.1924 55.181C62.1924 55.181 61.4403 54.3963 60.2473 53.324C59.0543 52.2517 58.7171 51.4409 58.4837 50.8655C58.2244 50.2901 58.0169 48.9824 57.991 46.9947ZM44.0641 93.2092L46.3723 93.183C45.4127 89.5476 41.9893 86.8537 37.9176 86.8798C33.7681 86.8798 30.3188 89.6522 29.4111 93.3922L44.0641 93.2092ZM36.4912 30.073L36.2837 22.619L36.569 22.4882L36.8024 29.8899L40.1739 28.7391L37.0618 10.405L36.958 10.3004L36.8024 10.5881L36.0762 17.1266L35.8688 17.022L36.569 10.9542L33.9237 15.3481L27.1807 26.4114L23.8611 31.9561L21.8382 35.0946L30.9671 31.9561L29.7482 31.0668L29.9557 30.8837L31.3302 31.8514L36.4912 30.073ZM36.6468 35.173L36.4912 30.2822L31.6155 32.0345L35.9984 35.1207L36.6468 35.173ZM36.984 46.5501L36.6727 35.9053L36.3875 35.8007L31.1746 39.4885L31.0968 39.3054L35.9984 35.6438L31.2265 32.1653L21.8382 35.5392L23.4461 36.3238L23.3424 36.533L21.8122 35.7746L25.0541 40.9792L26.247 42.8885L28.3218 46.2101L30.8634 50.1332L37.5026 60.4903L39.2921 39.3054L39.4218 37.7361L37.0618 36.0884L37.373 46.0532L36.984 46.5501ZM37.0358 35.5915V35.6961L39.4218 37.3961L39.733 33.7607L37.2433 35.3299L37.0358 35.5915ZM36.8543 30.1514L37.0099 35.1207L39.759 33.3684L40.122 29.0791L36.8543 30.1514ZM40.2258 29.0791H40.3036L40.2777 29.0529L40.2258 29.0791ZM16.9106 22.5405C17.7924 23.6913 18.2333 25.1037 18.3629 25.6529C17.3255 25.8098 16.34 26.5683 16.0807 27.5883C15.8473 27.5621 15.5101 27.5098 15.3804 27.4837V27.4575C15.3804 26.6206 14.7062 25.9406 13.98 25.9406C13.3835 25.9406 12.7351 26.4114 12.5536 27.0652C12.1905 27.0391 10.4269 26.9083 9.20802 26.856C8.04096 26.8037 3.99516 26.9606 2.93185 27.0129L2.98372 -17.8415L4.30639 -10.6491L5.65498 -5.10443L6.25148 -3.11671L7.15919 -0.91976C6.32928 -0.579756 5.68092 0.257179 5.68092 1.19873C5.68092 2.16644 6.35522 2.97721 7.23699 3.26491C7.13326 3.89261 6.7961 6.2988 7.00358 8.07728C7.23699 10.1173 7.34074 10.3265 7.83349 12.1835C8.32625 14.0143 9.93418 16.0543 11.6199 17.3359C13.3057 18.6174 15.7954 21.0498 16.9106 22.5405ZM7.4704 4.31108C7.57413 3.91876 7.67788 3.57876 7.78162 3.34337C7.83348 3.36953 7.9113 3.36953 7.96317 3.34337C8.09284 3.34337 8.22251 3.34338 8.35218 3.31722L10.1157 7.42342L12.1386 11.5296L14.6802 15.6881L16.7809 18.6959L19.9968 22.5144L23.8092 26.3068L25.7284 28.0068L24.5094 29.9683C24.3797 29.916 24.1982 29.8376 23.8351 29.7329C22.9793 29.4453 22.3309 29.3406 21.4751 29.2883L20.8526 29.2622C21.0861 28.896 21.2157 28.4776 21.2157 28.0591C21.2157 26.8298 20.2043 25.8098 19.0372 25.6267C19.0372 25.6267 18.8816 24.7898 17.9739 23.3775C17.0662 21.9913 16.366 21.1805 15.7176 20.5005C15.0692 19.8205 13.8503 18.5913 13.176 18.0943C12.5017 17.5974 10.6604 16.2374 9.25989 14.3804C7.85942 12.5496 7.70381 10.5619 7.34073 9.07114C6.97765 7.58035 7.31479 5.0957 7.4704 4.31108ZM2.95779 27.876L2.93185 43.9085C3.29493 43.9608 4.07298 43.987 5.70685 43.9608C8.79307 43.9347 11.3087 43.647 11.3087 43.647C11.3087 43.647 14.758 43.2285 16.755 42.8623C18.7519 42.4962 24.4576 40.8223 24.4576 40.8223L24.5872 40.8485L23.0312 38.3638L21.1898 35.2515L24.0167 30.8053L24.1723 30.5437C24.0945 30.4653 23.9648 30.3868 23.8092 30.3083C23.4202 30.0991 22.6421 29.916 21.89 29.8376C21.3454 29.7591 20.7748 29.7329 20.5155 29.7068C20.0227 30.2037 19.3225 30.5437 18.6223 30.5437C17.3255 30.5437 16.0288 29.4191 16.0288 28.0591V28.0068L15.3027 27.9283C15.0952 28.5299 14.5246 28.9745 13.954 28.9745C13.2797 28.9745 12.6314 28.3729 12.5276 27.6145C12.2164 27.5622 11.0234 27.3791 7.54821 27.3791C6.40709 27.3791 3.70989 27.7714 2.95779 27.876ZM-23.6511 39.3577L-25.5703 40.7177L-24.9738 41.7116L-22.899 39.7238L-22.6915 36.6377L-20.124 38.4684L-17.6602 36.1146L-17.1674 34.8592L-20.3315 37.0823L-23.7808 34.8853L-23.6511 39.3577ZM-22.2506 42.47L-24.6107 42.4177L-21.9135 47.2563L-21.2392 47.9363L-19.1125 43.8562L-14.7296 43.15L-14.7555 42.967L-17.1156 39.6454L-17.0118 39.2269L-15.5336 34.7807L-17.4009 37.0038L-18.2567 40.09L-16.4413 42.3654L-19.5016 42.6008L-21.2132 45.687L-22.2506 42.47ZM-18.8532 44.327L-21.1873 48.5378C-21.1873 48.5378 1.03863 88.3183 1.03863 88.266L1.40171 15.7143L-0.309971 17.6236L-3.13684 21.2067L-6.19712 24.9467L-9.77609 28.7391L-14.963 34.1269L-16.5191 39.41L-13.7181 43.3331L-18.8532 44.327ZM-1.58076 17.8851L1.40171 13.4389L1.47952 -1.59977C1.22017 -0.710524 0.857084 0.597185 0.286524 2.50644C-1.39922 8.20805 -6.14525 18.0159 -7.54572 20.4221C-8.97212 22.8282 -10.3207 24.0052 -10.3207 24.0052C-10.3207 24.0052 -9.80203 22.4882 -9.51675 21.9652C-9.38708 21.7298 -8.5831 18.9836 -7.93474 15.9758C-7.20857 12.6281 -6.45647 8.96653 -6.37866 7.92036C-6.22306 5.88033 -5.52282 -3.61364 -5.52282 -3.61364L-8.92025 2.50644L-8.81651 5.88033L-8.97212 10.6927L-9.64642 16.4989L-10.4245 19.5328L-11.4618 22.8544L-13.9516 28.8176L-15.1964 31.4591L-16.3635 34.4145L-16.8562 35.513L-16.6747 35.3823L-13.5625 31.616L-11.8249 29.7591L-7.57166 25.2344L-4.53731 21.6252L-1.58076 17.8851ZM-9.82796 4.57262L-9.95763 4.38955L-27.8525 36.6377L-25.8037 40.2992L-24.1179 39.0438L-24.2735 34.1269L-20.2018 36.1146L-16.8303 33.9961L-15.1186 30.2299L-12.966 24.816L-11.7731 21.0236L-10.6838 16.7343L-9.95763 11.8173L-9.75016 7.71112L-9.82796 4.57262ZM-22.3025 40.0639L-24.4291 41.8423L-21.8875 41.9993L-21.1095 44.6147L-19.9943 42.0777L-17.5824 41.9731L-19.0088 40.1162L-17.9455 37.37L-20.3055 39.07L-22.2506 37.4746L-22.3025 40.0639ZM65.7713 66.7673C65.7713 65.7734 64.8896 65.2503 64.2153 65.2242C63.541 65.198 62.6333 65.7734 62.6333 66.7673C62.6333 67.7611 63.2298 68.3888 64.2153 68.3888C65.2008 68.3888 65.7713 67.7611 65.7713 66.7673ZM-0.517447 0.126408C-0.361839 -0.422831 0.934887 -4.81673 1.50545 -6.80445L1.58325 -16.5338L-4.07049 -6.2029C-4.12235 -4.92135 -4.20016 -2.7244 -4.09642 -2.22747C-3.96675 -1.52131 -5.00413 7.73728 -5.47095 9.7773C-5.93777 11.7912 -6.79362 16.342 -6.79362 16.342C-6.79362 16.342 -6.71581 16.3943 -6.09338 15.4528C-5.49689 14.5112 -0.698988 0.832571 -0.517447 0.126408ZM15.147 27.4575C15.147 26.6467 14.7062 26.176 14.0059 26.176C13.3057 26.176 12.8129 26.6467 12.8129 27.4575C12.8129 28.2422 13.3057 28.7391 14.0059 28.7391C14.7062 28.7391 15.147 28.2422 15.147 27.4575ZM20.8008 28.0591C20.8008 26.7775 19.9709 26.0191 18.726 26.0191C17.4552 26.0191 16.5734 26.8037 16.5734 28.0591C16.5734 29.3668 17.4812 30.1514 18.726 30.1514C19.9968 30.1514 20.8008 29.3406 20.8008 28.0591ZM24.0685 25.7052L26.0655 27.4837L29.3333 22.2267L33.1197 16.002L31.0449 10.7189L29.3333 6.95265L28.0365 4.41569L26.4545 1.69566L23.8092 -2.41055L22.7459 -3.95364L21.0601 -6.35983L19.6337 -8.05985L17.7146 -10.1522L14.784 -13.0553L12.9167 -14.7553L11.5681 -15.9846L9.64891 -17.6584L7.75568 -19.2538L5.91433 -20.6139L3.7877 -21.8431L3.3468 -21.7123L3.21713 -18.8615L4.79914 -10.2045L5.68092 -6.8306L6.95171 -3.14286L7.57415 -1.05053C7.70382 -1.07668 7.85942 -1.10284 7.98909 -1.10284C9.18208 -1.10284 10.2973 -0.0305176 10.2973 1.17257C10.2973 2.08797 9.67484 2.84645 8.84494 3.18645L9.18208 4.28492L11.9052 9.96038L14.0837 14.0404L17.4552 18.6174L21.0083 22.7236L24.0685 25.7052ZM43.4935 -22.0523L27.8031 -22.0785C27.855 -17.4754 31.3562 -13.7615 35.6613 -13.7876C39.9405 -13.7876 43.4157 -17.4754 43.4935 -22.0523ZM90.8501 33.7345L90.8794 33.6881L89.9164 34.4407L90.2795 30.4914L87.8676 28.0329L91.8615 27.4575L93.3657 24.1621L96.037 28.9745L94.9737 28.896L93.7029 26.4898L92.4062 28.7914L89.683 29.0529L91.6022 30.6745L91.2132 33.1592L90.8794 33.6881L90.9538 33.6299L90.8501 33.7345ZM95.259 30.936L96.6076 30.0206L97.4375 31.5114L96.2186 31.7207L96.1926 35.9053L93.2361 33.7345L90.1758 35.3561L90.5907 34.6238L93.1583 32.453L95.259 33.8915V30.936ZM93.1323 31.9561L91.3688 33.3161L91.4985 33.1853L92.069 30.5437L90.5389 29.3145L92.6396 29.3929L93.651 27.3006L94.6365 29.3668L96.0629 29.5499L94.9218 30.7268V33.2115L93.1323 31.9561ZM85.4557 45.4778C86.7005 42.7577 88.9568 37.8669 89.6311 36.4284C89.8127 36.0361 93.1583 34.3099 93.1583 34.3361L96.6335 36.7161L96.815 32.2176L97.8265 32.1653L99.9272 35.9576L82.0583 67.2119C81.9805 66.715 81.9286 65.9827 81.9545 64.858C81.9805 62.2688 82.7844 54.6056 83.3031 52.8532C83.8218 51.1009 84.0033 48.6947 85.4557 45.4778ZM91.5763 26.9083L92.9249 23.3252L70.4914 -17.2923L70.7508 56.6718C71.2954 55.9395 72.255 54.6056 73.6555 52.3825C75.8858 48.7732 84.0552 40.5085 84.0552 40.5085L89.0865 35.4607L89.5015 30.7268L87.0377 27.6145L91.5763 26.9083ZM78.7905 47.7009C75.6265 51.2055 71.7104 57.6133 70.7248 59.261V68.3365L78.2718 53.7425C80.1391 49.8978 82.0842 47.4393 83.5106 46.0793C83.5106 46.0793 80.2688 56.1487 78.972 61.0657C77.6753 65.9827 77.9865 69.0165 77.805 72.7566C77.7791 73.672 77.7791 74.2735 77.805 74.6397L80.8653 69.2519C80.9171 67.4734 81.0468 63.6288 81.2543 60.281C81.5396 55.8087 83.4587 48.5116 84.7295 44.8239C86.0003 41.1362 88.0232 37.9192 88.0232 37.9192C88.0232 37.9192 82.4473 43.6208 78.7905 47.7009ZM77.8569 61.2487C78.6868 57.7179 81.384 50.0286 81.384 50.0286C80.3206 51.9117 74.8484 60.0718 72.2291 69.2258C70.9842 73.5412 70.7767 74.1427 70.7767 74.1427L70.8286 86.8537L76.7157 76.5228C76.5083 72.5473 77.0269 64.7011 77.8569 61.2487ZM9.93419 1.17257C9.93419 0.0217915 9.10429 -0.736677 7.96317 -0.736677C6.79611 -0.736677 6.06993 0.047945 6.06993 1.17257C6.06993 2.2972 6.82204 3.00337 7.96317 3.00337C9.10429 3.00337 9.93419 2.32336 9.93419 1.17257ZM61.3625 43.6731C61.3625 43.0193 60.9994 42.7839 60.2991 42.7839C59.6248 42.7839 59.2877 43.0193 59.2877 43.6731C59.2877 44.327 59.5989 44.5885 60.2991 44.5885C60.9994 44.5885 61.3625 44.327 61.3625 43.6731ZM58.5356 42.7316C58.5356 41.2931 57.5241 40.3254 56.1237 40.3254C54.7232 40.3254 53.6858 41.2931 53.7118 42.7316C53.7118 44.17 54.7232 45.0854 56.1237 45.0854C57.5241 45.0854 58.5356 44.17 58.5356 42.7316Z" fill="#8E35FF"/>
<path d="M46.6057 26.8821C46.6576 27.0914 46.7354 27.3268 46.7872 27.536C47.5134 26.9083 48.2655 26.3068 48.9917 25.6791C50.2884 24.3975 51.5592 23.1421 52.8559 21.8605C53.9192 20.579 55.0085 19.3236 56.0718 18.042C56.8239 17.0482 57.576 16.0281 58.354 15.0343C59.2877 13.6481 60.1954 12.262 61.1291 10.8758C61.9071 9.51576 62.6592 8.12959 63.4372 6.76957C64.0856 5.33109 64.708 3.86646 65.3564 2.42798C65.7973 1.17258 66.2641 -0.0828248 66.705 -1.36438M46.6057 26.8821L46.6118 26.8767M46.6057 26.8821C46.6077 26.8803 46.6097 26.8785 46.6118 26.8767M66.705 -1.36438C67.0681 -2.82901 67.4312 -4.29365 67.7942 -5.75828M66.705 -1.36438L67.7942 -5.75828M67.7942 -5.75828C68.1314 -7.61523 68.4945 -9.47218 68.8316 -11.303L69.1688 -15.0953V26.5683L61.933 26.856L58.0428 27.4052L54.5676 28.1375L51.9742 28.7652L49.0954 29.6545L48.5508 29.9683L48.473 30.3345H48.9398L49.8475 29.9683L51.2739 29.576L53.608 28.9483C53.608 28.9483 55.7347 28.4252 55.8125 28.4252C55.8903 28.4252 57.965 27.9283 57.965 27.9283L60.1435 27.536C60.7919 27.4314 61.4143 27.2483 62.0886 27.2483L69.2206 27.0652V44.5885C69.2206 44.5885 67.8202 44.7455 66.8606 44.7716C65.8751 44.7978 64.2671 44.6931 63.6706 44.6147C62.737 44.4839 61.933 44.1178 61.6737 43.987C61.6996 43.9085 61.6996 43.8039 61.6996 43.6993C61.6996 42.9931 61.1031 42.4962 60.377 42.4962C59.7027 42.4962 59.1321 42.967 59.0802 43.5947H58.8209C58.8987 43.3331 58.9505 43.0716 58.9505 42.7839C58.9505 41.2669 57.6538 39.9854 56.1756 39.9854C54.827 39.9854 53.6599 41.0316 53.4524 42.3654M53.4524 42.3654L53.4307 42.3622M53.4524 42.3654C53.4454 42.3644 53.4381 42.3633 53.4307 42.3622M51.248 35.9576L49.3548 39.7238L48.8361 40.6916C48.9398 40.7962 49.1732 40.9792 49.666 41.3454C50.4362 41.915 52.7058 42.2539 53.4307 42.3622M51.248 35.9576L51.1183 35.5653M51.248 35.9576L44.6347 47.8578L42.0412 52.8532L37.8657 60.4903H37.7879L39.6293 39.1485L39.759 37.6054L40.0961 33.5253L42.1449 32.2176L41.9634 32.0084L40.122 33.1592L40.4592 29.1576L51.1183 35.5653M51.1183 35.5653L50.4959 34.3884M51.1183 35.5653L40.5111 28.8176L37.4508 10.9542L41.4966 18.2774L43.4676 22.0175L45.8536 26.7775L50.4959 34.3884M50.4959 34.3884L45.9314 26.3852L43.5973 21.599L37.0877 9.33269L33.4569 15.2958L32.4195 12.8112L31.797 11.1635L30.5263 8.23421L29.2555 5.74956L28.4255 4.18031L27.1548 1.82643L25.7024 -0.579754L23.8611 -3.43056L22.4347 -5.39212L21.0342 -7.24907L19.5041 -9.10602L17.559 -11.303L14.8358 -13.8399L12.4758 -15.9323L10.0639 -17.9461L8.1447 -19.4631L6.53676 -20.6662L5.62905 -21.2939L4.41012 -21.9477L4.98069 -22.0785L27.3622 -22.0262C27.44 -17.1877 31.0968 -13.2645 35.6094 -13.2645C40.122 -13.2645 43.7788 -17.1615 43.8566 -21.9739H46.8391L68.6241 -21.817C68.5723 -21.7908 68.4945 -21.7385 68.4167 -21.6862C65.7195 -19.8292 62.9704 -17.1615 60.1435 -14.8861C59.0284 -13.8922 57.9132 -12.7938 56.798 -11.7737C54.8529 -9.6291 53.1412 -7.90292 50.8071 -5.20904C42.897 5.72341 42.1709 8.62652 40.1998 14.982C40.148 15.1651 40.6148 15.3481 40.6407 15.2174C44.7384 2.5326 50.1069 -3.95365 58.8468 -13.1338C59.8064 -13.9445 60.74 -14.9907 61.6996 -15.8015C62.5814 -16.5338 63.4632 -17.24 64.3449 -17.9723C64.9155 -18.4169 67.5608 -20.6923 68.7538 -21.4769C68.9354 -21.6077 69.0391 -21.66 69.091 -21.7123V-15.9846L68.3129 -10.7799C68.1055 -9.65526 67.872 -8.53062 67.6646 -7.40599C67.3793 -6.17675 67.1199 -4.9475 66.8347 -3.71826C65.927 -1.23361 64.9933 1.22489 64.0856 3.70953C63.126 5.59263 62.1405 7.50189 61.1809 9.38499C60.2991 10.745 59.4174 12.105 58.5615 13.465C57.4463 14.982 56.3052 16.5251 55.19 18.042C53.997 19.402 52.804 20.7882 51.637 22.1482L51.6361 22.1491C50.6249 23.1427 49.6138 24.1362 48.5767 25.1298C47.9562 25.6774 47.284 26.277 46.6118 26.8767M59.9879 53.5856C60.8178 54.3963 62.9185 56.4625 63.541 57.1687C64.1634 57.8748 64.2671 58.2149 64.2671 58.2149C64.2671 58.2149 64.8377 59.6795 65.0192 62.0334C65.123 63.6811 64.7858 64.3349 64.5524 64.6226C64.4227 64.5965 64.319 64.5703 64.1893 64.5703C63.7225 64.5703 63.2557 64.8057 62.8926 65.1719L60.9994 61.0657L58.9505 57.2471L56.5646 53.8471L52.8559 49.0347L50.1587 46.1316L47.5393 43.3854L47.3319 43.8824L48.8879 45.5039L52.3372 49.4532L55.2678 53.0886L57.9391 56.7502L59.7545 59.9933C59.7545 59.9933 61.9849 64.2042 62.0108 64.4395C62.0368 64.6226 62.322 65.3549 62.4776 65.7473C62.322 66.0611 62.2183 66.4011 62.2183 66.715C62.2183 67.7088 62.8926 68.6765 64.0337 68.7812C64.0337 68.7812 66.8087 74.7966 68.2092 83.1136C68.7798 86.4614 69.0391 88.2922 69.1428 89.286V90.3845V91.7184C67.6905 90.9076 63.9041 88.6583 60.8697 86.226C57.0314 83.1398 55.3975 81.4136 53.634 79.2167C52.7522 78.1182 51.0405 75.8689 49.3807 72.8873C47.8765 70.1673 46.2167 66.898 44.6865 63.5241C41.4706 56.4364 41.5744 54.3702 41.5744 54.3702L44.5828 48.3286L47.2022 43.5162L48.5248 41.0316C48.6545 41.2146 49.0695 41.5808 50.444 42.0516C51.9223 42.5485 52.9337 42.6793 53.3227 42.7054C53.3227 44.2224 54.6195 45.4516 56.0977 45.4516C56.5646 45.4516 57.0314 45.3208 57.4204 45.1116L57.5501 45.7655C57.5501 45.7655 57.576 48.1978 57.8613 50.0286C58.1439 51.8425 59.1394 52.7835 59.9649 53.5638M59.9879 53.5856L59.9649 53.5638M59.9879 53.5856C59.9803 53.5783 59.9726 53.5711 59.9649 53.5638M16.0288 28.0068L15.3027 27.9283C15.0952 28.5299 14.5246 28.9745 13.954 28.9745C13.2797 28.9745 12.6314 28.3729 12.5276 27.6145C12.2164 27.5622 11.0234 27.3791 7.54821 27.3791C6.40708 27.3791 3.70989 27.7714 2.95779 27.876L2.93185 43.9085C3.29493 43.9608 4.07297 43.987 5.70685 43.9608C8.79307 43.9347 11.3087 43.647 11.3087 43.647C11.3087 43.647 14.758 43.2285 16.755 42.8623C18.7519 42.4962 24.4576 40.8223 24.4576 40.8223L24.5872 40.8485L23.0312 38.3638L21.1898 35.2515L24.0167 30.8053L24.1723 30.5437C24.0945 30.4653 23.9648 30.3868 23.8092 30.3083C23.4202 30.0991 22.6421 29.916 21.89 29.8376C21.3454 29.7591 20.7748 29.7329 20.5155 29.7068C20.0227 30.2037 19.3225 30.5437 18.6223 30.5437C17.3255 30.5437 16.0288 29.4191 16.0288 28.0591M16.0288 28.0068C16.0288 28.0329 16.0288 28.0329 16.0288 28.0591M16.0288 28.0068V28.0591M-21.2392 47.9363L-19.1125 43.8562L-14.7296 43.15L-14.7555 42.967L-17.1156 39.6454L-17.0118 39.2269L-15.5336 34.7807L-17.4009 37.0038L-18.2567 40.09L-16.4413 42.3654L-19.5016 42.6008L-21.2132 45.687L-22.2506 42.47L-24.6107 42.4177L-21.9135 47.2563M-21.2392 47.9363C-21.4726 47.7009 -21.706 47.4655 -21.9135 47.2563M-21.2392 47.9363L-21.9135 47.2563M90.8794 33.6881L90.8501 33.7345L90.9538 33.6299L90.8794 33.6881ZM90.8794 33.6881L89.9164 34.4407L90.2795 30.4914L87.8676 28.0329L91.8615 27.4575L93.3657 24.1621L96.037 28.9745L94.9737 28.896L93.7029 26.4898L92.4062 28.7914L89.683 29.0529L91.6022 30.6745L91.2132 33.1592L90.8794 33.6881ZM68.8057 93.0522L68.6501 92.6599C68.6501 92.6599 58.4059 85.8075 54.8788 81.5967C53.8933 80.3936 52.9337 79.3997 52.1038 78.2751C50.3143 75.8428 48.084 71.8412 46.5798 69.0165C45.3608 66.7411 43.6232 62.7134 43.6232 62.7134C43.6232 62.7134 42.4821 60.1241 42.3006 59.7318C42.1449 59.3395 40.9519 55.5733 40.9519 55.5733L39.759 57.9533C39.759 57.9533 37.8139 61.4057 37.6842 61.4057L37.0099 60.4903L33.7681 55.2071L33.5347 54.841C33.3531 55.7302 32.7307 58.7118 32.212 60.2549C31.5896 62.0595 30.4744 64.5965 27.5697 69.7489C26.7657 71.1612 25.9358 72.5997 24.8466 74.0381C21.916 77.909 17.922 81.9105 13.954 85.7029C8.819 90.6199 4.59166 93.2615 4.0989 93.5753L4.30639 93.6538L28.9702 93.3661C29.8779 89.3906 33.5606 86.4091 37.9435 86.4091C42.2746 86.4091 45.8795 89.286 46.865 93.183L68.8057 93.0522ZM26.3248 43.6208C26.0136 43.7778 25.2615 44.1962 23.9648 45.3732C22.8237 46.3932 21.1898 48.0147 19.2966 50.4994C17.8961 52.3563 15.7695 54.8933 13.7725 58.0841C13.1501 59.1041 12.2164 60.5687 11.6977 61.6672C10.0379 65.0934 8.45592 68.1011 7.49634 70.4289C7.13325 71.2658 6.82204 71.9981 6.66644 72.652C5.83653 75.9735 5.75872 74.9797 5.11036 78.3536C4.46199 81.7275 3.65802 86.4091 3.65802 86.4091L2.87998 91.9799V93.1046L3.76176 93.4445C6.51083 92.1107 16.5994 82.7213 16.729 82.5382C16.8587 82.3552 20.5155 78.432 20.7748 78.1705C21.0342 77.9089 24.665 73.6197 26.4026 70.8212C28.1403 68.0227 30.8634 62.1118 30.8634 62.1118C30.8634 62.1118 32.1342 58.7903 32.4454 57.7179C32.7048 56.8287 33.0419 54.8933 33.1456 54.2133L31.797 52.1471L29.1258 47.9624L27.3104 45.1639L26.3248 43.6208ZM2.87998 88.2399C3.24307 85.0752 4.41012 78.589 6.32928 72.5473C7.26293 69.5919 8.50778 66.7411 9.70078 64.4395C11.1531 61.6672 12.8907 58.5287 14.8877 55.5994C16.7809 52.8271 18.9076 50.264 20.4896 48.407C21.0342 47.7532 21.4751 47.2039 22.0197 46.6809C22.5643 46.1316 23.2386 45.6085 23.8351 45.007C24.2241 44.6408 24.6391 44.2747 24.8984 44.0393C25.469 43.5423 25.8062 43.2547 25.9877 43.0716L24.7428 41.0839C24.0945 41.3716 22.5384 42.0516 20.5155 42.5485C17.8442 43.2024 14.4727 43.8039 10.1676 44.1962C6.53676 44.5362 3.70988 44.5885 2.93185 44.6147L2.87998 88.2399ZM58.0947 44.667C58.0428 44.9547 57.991 45.6347 57.991 46.9947C58.0169 48.9824 58.2244 50.2901 58.4837 50.8655C58.7171 51.4409 59.0543 52.2517 60.2473 53.324C61.4403 54.3963 62.1924 55.181 62.1924 55.181C62.1924 55.181 64.1634 57.0902 64.4746 57.7441C64.8896 58.581 64.8896 58.5287 65.0711 59.7841C65.2008 60.6733 65.512 63.1057 65.5379 63.6811C65.5639 64.0734 65.5898 64.8319 65.6157 65.2503C66.0307 65.6688 66.29 66.218 66.29 66.7673C66.29 67.6827 65.6935 68.5719 64.708 68.8073L65.8491 72.312C65.8491 72.312 66.8347 74.9012 67.7424 78.5105C68.3907 81.0998 68.9094 84.6829 69.1428 86.4614V45.007C68.3907 45.0331 66.316 45.0855 64.5784 44.9808C62.737 44.9024 61.7255 44.4316 61.4403 44.2747C61.2069 44.6408 60.7919 44.9024 60.2991 44.9024C59.6508 44.9024 59.1321 44.4839 59.0024 43.9085H58.5875C58.4837 44.1962 58.3022 44.4316 58.0947 44.667ZM69.1428 93.7584L69.3763 93.6538L69.7393 93.4707L70.5433 91.6138L102.598 35.5915L69.1947 -22C69.2466 -22.157 68.9872 -22.3923 68.9872 -22.3923L67.7683 -23.2031H36.7505L4.6954 -23.1508L3.03559 -22.3139H2.98372L-30.6016 36.0623L2.85405 94.4907L4.74727 95.1969L67.3793 94.5953L69.1428 93.7584ZM46.3723 93.183L44.0641 93.2092L29.4111 93.3922C30.3188 89.6522 33.7681 86.8798 37.9176 86.8798C41.9893 86.8537 45.4127 89.5476 46.3723 93.183ZM36.2837 22.619L36.4912 30.073L31.3302 31.8514L29.9557 30.8837L29.7482 31.0668L30.9671 31.9561L21.8382 35.0946L23.8611 31.9561L27.1807 26.4114L33.9237 15.3481L36.569 10.9542L35.8688 17.022L36.0762 17.1266L36.8024 10.5881L36.958 10.3004L37.0618 10.405L40.1739 28.7391L36.8024 29.8899L36.569 22.4882L36.2837 22.619ZM36.4912 30.2822L36.6468 35.173L35.9984 35.1207L31.6155 32.0345L36.4912 30.2822ZM36.6727 35.9053L36.984 46.5501L37.373 46.0532L37.0618 36.0884L39.4218 37.7361L39.2921 39.3054L37.5026 60.4903L30.8634 50.1332L28.3218 46.2101L26.247 42.8885L25.0541 40.9792L21.8122 35.7746L23.3424 36.533L23.4461 36.3238L21.8382 35.5392L31.2265 32.1653L35.9984 35.6438L31.0968 39.3054L31.1746 39.4885L36.3875 35.8007L36.6727 35.9053ZM37.0358 35.6961V35.5915L37.2433 35.3299L39.733 33.7607L39.4218 37.3961L37.0358 35.6961ZM37.0099 35.1207L36.8543 30.1514L40.122 29.0791L39.759 33.3684L37.0099 35.1207ZM35.791 54.2917L36.8543 59.0256L37.1655 59.3133L36.0762 54.2917H35.791ZM40.3036 29.0791H40.2258L40.2777 29.0529L40.3036 29.0791ZM18.3629 25.6529C18.2333 25.1037 17.7924 23.6913 16.9106 22.5405C15.7954 21.0498 13.3057 18.6174 11.6199 17.3359C9.93418 16.0543 8.32625 14.0143 7.83349 12.1835C7.34074 10.3265 7.23699 10.1173 7.00358 8.07728C6.79611 6.2988 7.13325 3.89261 7.23699 3.26491C6.35522 2.97722 5.68092 2.16644 5.68092 1.19873C5.68092 0.25718 6.32928 -0.579755 7.15919 -0.91976L6.25148 -3.11671L5.65498 -5.10443L4.30639 -10.6491L2.98372 -17.8415L2.93185 27.0129C3.99516 26.9606 8.04096 26.8037 9.20802 26.856C10.4269 26.9083 12.1905 27.0391 12.5536 27.0652C12.7351 26.4114 13.3835 25.9406 13.98 25.9406C14.7061 25.9406 15.3804 26.6206 15.3804 27.4575V27.4837C15.5101 27.5098 15.8473 27.5621 16.0807 27.5883C16.34 26.5683 17.3255 25.8098 18.3629 25.6529ZM7.78162 3.34337C7.67788 3.57876 7.57414 3.91876 7.4704 4.31108C7.31479 5.0957 6.97764 7.58035 7.34073 9.07114C7.70381 10.5619 7.85942 12.5496 9.25989 14.3804C10.6604 16.2374 12.5017 17.5974 13.176 18.0943C13.8503 18.5913 15.0692 19.8205 15.7176 20.5005C16.366 21.1805 17.0662 21.9913 17.9739 23.3775C18.8816 24.7898 19.0372 25.6267 19.0372 25.6267C20.2043 25.8098 21.2157 26.8298 21.2157 28.0591C21.2157 28.4775 21.0861 28.896 20.8526 29.2622L21.4751 29.2883C22.3309 29.3406 22.9793 29.4453 23.8351 29.7329C24.1982 29.8376 24.3797 29.916 24.5094 29.9683L25.7284 28.0068L23.8092 26.3068L19.9968 22.5144L16.7809 18.6959L14.6802 15.6881L12.1386 11.5296L10.1157 7.42342L8.35218 3.31722C8.22251 3.34338 8.09284 3.34337 7.96317 3.34337C7.9113 3.36953 7.83349 3.36953 7.78162 3.34337ZM-25.5703 40.7177L-23.6511 39.3577L-23.7808 34.8853L-20.3315 37.0823L-17.1674 34.8592L-17.6602 36.1146L-20.124 38.4684L-22.6915 36.6377L-22.899 39.7238L-24.9738 41.7116L-25.5703 40.7177ZM-21.1873 48.5378L-18.8532 44.327L-13.7181 43.3331L-16.5191 39.41L-14.963 34.1269L-9.77609 28.7391L-6.19712 24.9467L-3.13684 21.2067L-0.309971 17.6236L1.40171 15.7143L1.03863 88.266C1.03863 88.3183 -21.1873 48.5378 -21.1873 48.5378ZM1.40171 13.4389L-1.58076 17.8851L-4.53731 21.6252L-7.57166 25.2344L-11.8249 29.7591L-13.5625 31.616L-16.6747 35.3823L-16.8562 35.513L-16.3635 34.4145L-15.1964 31.4591L-13.9516 28.8176L-11.4618 22.8544L-10.4245 19.5328L-9.64642 16.4989L-8.97212 10.6927L-8.81651 5.88033L-8.92025 2.50644L-5.52282 -3.61364C-5.52282 -3.61364 -6.22306 5.88033 -6.37866 7.92036C-6.45647 8.96653 -7.20857 12.6281 -7.93474 15.9758C-8.5831 18.9836 -9.38708 21.7298 -9.51675 21.9652C-9.80203 22.4882 -10.3207 24.0052 -10.3207 24.0052C-10.3207 24.0052 -8.97212 22.8282 -7.54572 20.4221C-6.14525 18.0159 -1.39922 8.20805 0.286524 2.50644C0.857085 0.597186 1.22017 -0.710523 1.47952 -1.59977L1.40171 13.4389ZM-9.95763 4.38955L-9.82796 4.57262L-9.75016 7.71112L-9.95763 11.8173L-10.6838 16.7343L-11.7731 21.0236L-12.966 24.816L-15.1186 30.2299L-16.8303 33.9961L-20.2018 36.1146L-24.2735 34.1269L-24.1179 39.0438L-25.8037 40.2992L-27.8525 36.6377L-9.95763 4.38955ZM-24.4291 41.8423L-22.3025 40.0639L-22.2506 37.4746L-20.3055 39.07L-17.9455 37.37L-19.0088 40.1162L-17.5824 41.9731L-19.9943 42.0777L-21.1095 44.6147L-21.8875 41.9993L-24.4291 41.8423ZM64.2153 65.2242C64.8896 65.2503 65.7713 65.7734 65.7713 66.7673C65.7713 67.7611 65.2008 68.3888 64.2153 68.3888C63.2298 68.3888 62.6333 67.7611 62.6333 66.7673C62.6333 65.7734 63.541 65.198 64.2153 65.2242ZM1.50545 -6.80445C0.934887 -4.81673 -0.361839 -0.42283 -0.517447 0.126408C-0.698989 0.832571 -5.49689 14.5112 -6.09338 15.4528C-6.71581 16.3943 -6.79362 16.342 -6.79362 16.342C-6.79362 16.342 -5.93777 11.7912 -5.47095 9.7773C-5.00413 7.73728 -3.96675 -1.52131 -4.09642 -2.22747C-4.20016 -2.7244 -4.12236 -4.92135 -4.07049 -6.2029L1.58325 -16.5338L1.50545 -6.80445ZM14.0059 26.176C14.7062 26.176 15.147 26.6467 15.147 27.4575C15.147 28.2422 14.7062 28.7391 14.0059 28.7391C13.3057 28.7391 12.8129 28.2422 12.8129 27.4575C12.8129 26.6467 13.3057 26.176 14.0059 26.176ZM18.726 26.0191C19.9709 26.0191 20.8008 26.7775 20.8008 28.0591C20.8008 29.3406 19.9968 30.1514 18.726 30.1514C17.4812 30.1514 16.5734 29.3668 16.5734 28.0591C16.5734 26.8037 17.4552 26.0191 18.726 26.0191ZM26.0655 27.4837L24.0685 25.7052L21.0083 22.7236L17.4552 18.6174L14.0837 14.0404L11.9052 9.96038L9.18208 4.28492L8.84494 3.18645C9.67484 2.84645 10.2973 2.08797 10.2973 1.17257C10.2973 -0.0305176 9.18208 -1.10284 7.98909 -1.10284C7.85942 -1.10284 7.70382 -1.07669 7.57415 -1.05053L6.95171 -3.14286L5.68092 -6.8306L4.79914 -10.2045L3.21713 -18.8615L3.3468 -21.7123L3.7877 -21.8431L5.91433 -20.6139L7.75568 -19.2538L9.64891 -17.6584L11.5681 -15.9846L12.9167 -14.7553L14.784 -13.0553L17.7146 -10.1522L19.6337 -8.05985L21.0601 -6.35983L22.7459 -3.95364L23.8092 -2.41055L26.4545 1.69566L28.0365 4.41569L29.3333 6.95265L31.0449 10.7189L33.1197 16.002L29.3333 22.2267L26.0655 27.4837ZM27.8031 -22.0785L43.4935 -22.0523C43.4157 -17.4754 39.9405 -13.7876 35.6613 -13.7876C31.3562 -13.7615 27.855 -17.4754 27.8031 -22.0785ZM96.6076 30.0206L95.259 30.936V33.8915L93.1583 32.453L90.5907 34.6238L90.1758 35.3561L93.2361 33.7345L96.1926 35.9053L96.2186 31.7207L97.4375 31.5114L96.6076 30.0206ZM91.3688 33.3161L93.1323 31.9561L94.9218 33.2115V30.7268L96.0629 29.5499L94.6365 29.3668L93.651 27.3006L92.6396 29.3929L90.5389 29.3145L92.069 30.5437L91.4985 33.1853L91.3688 33.3161ZM89.6311 36.4284C88.9569 37.8669 86.7005 42.7577 85.4557 45.4778C84.0034 48.6947 83.8218 51.1009 83.3031 52.8532C82.7844 54.6056 81.9805 62.2688 81.9545 64.858C81.9286 65.9827 81.9805 66.715 82.0583 67.2119L99.9272 35.9576L97.8265 32.1653L96.815 32.2176L96.6335 36.7161L93.1583 34.3361C93.1583 34.3099 89.8127 36.0361 89.6311 36.4284ZM92.9249 23.3252L91.5763 26.9083L87.0377 27.6145L89.5015 30.7268L89.0865 35.4607L84.0552 40.5085C84.0552 40.5085 75.8858 48.7732 73.6555 52.3825C72.255 54.6056 71.2954 55.9395 70.7508 56.6718L70.4914 -17.2923L92.9249 23.3252ZM70.7248 59.261C71.7104 57.6133 75.6265 51.2055 78.7905 47.7009C82.4473 43.6208 88.0232 37.9192 88.0232 37.9192C88.0232 37.9192 86.0003 41.1362 84.7295 44.8239C83.4587 48.5116 81.5396 55.8087 81.2543 60.281C81.0468 63.6288 80.9171 67.4734 80.8653 69.2519L77.805 74.6397C77.7791 74.2735 77.7791 73.672 77.805 72.7566C77.9865 69.0165 77.6753 65.9827 78.972 61.0657C80.2688 56.1487 83.5106 46.0793 83.5106 46.0793C82.0842 47.4393 80.1391 49.8978 78.2718 53.7425L70.7248 68.3365V59.261ZM81.384 50.0286C81.384 50.0286 78.6868 57.7179 77.8569 61.2487C77.027 64.7011 76.5083 72.5473 76.7157 76.5228L70.8286 86.8537L70.7767 74.1427C70.7767 74.1427 70.9842 73.5412 72.2291 69.2258C74.8485 60.0718 80.3206 51.9117 81.384 50.0286ZM7.96317 -0.736677C9.10429 -0.736677 9.93419 0.0217907 9.93419 1.17257C9.93419 2.32336 9.10429 3.00337 7.96317 3.00337C6.82204 3.00337 6.06993 2.29721 6.06993 1.17257C6.06993 0.0479449 6.79611 -0.736677 7.96317 -0.736677ZM60.2991 42.7839C60.9994 42.7839 61.3625 43.0193 61.3625 43.6731C61.3625 44.327 60.9994 44.5885 60.2991 44.5885C59.5989 44.5885 59.2877 44.327 59.2877 43.6731C59.2877 43.0193 59.6248 42.7839 60.2991 42.7839ZM56.1237 40.3254C57.5241 40.3254 58.5356 41.2931 58.5356 42.7316C58.5356 44.17 57.5241 45.0854 56.1237 45.0854C54.7232 45.0854 53.7118 44.17 53.7118 42.7316C53.6858 41.2931 54.7232 40.3254 56.1237 40.3254Z" stroke="#8E35FF" stroke-width="0.5" stroke-miterlimit="10"/>
<path d="M32.5 2.17543C34.6658 0.924996 37.3342 0.924997 39.5 2.17543L63.5429 16.0566C65.7087 17.3071 67.0429 19.6179 67.0429 22.1188V49.8812C67.0429 52.3821 65.7087 54.6929 63.5429 55.9434L39.5 69.8246C37.3342 71.075 34.6658 71.075 32.5 69.8246L8.45706 55.9434C6.29125 54.6929 4.95706 52.3821 4.95706 49.8812V22.1188C4.95706 19.6179 6.29125 17.3071 8.45706 16.0566L32.5 2.17543Z" stroke="#8E35FF" stroke-width="2"/>
</g>
</g>
<defs>
<clipPath id="clip0_3186_28697">
<rect width="72" height="72" fill="white"/>
</clipPath>
</defs>
</svg>
