<svg width="64.000000" height="64.000000" viewBox="0 0 64 64" fill="none" xmlns="http://www.w3.org/2000/svg" xmlns:xlink="http://www.w3.org/1999/xlink">
	<desc>
			Created with Pixso.
	</desc>
	<defs>
		<clipPath id="clip28_24535">
			<rect id="Remove" rx="0.000000" width="29.000000" height="29.000000" transform="translate(17.500000 17.500000)" fill="white" fill-opacity="0"/>
		</clipPath>
	</defs>
	<path id="STROKE" d="M28 2.31L8.28 13.68C5.81 15.11 4.28 17.75 4.28 20.61L4.28 43.38C4.28 46.24 5.81 48.88 8.28 50.31L28 61.68C30.47 63.11 33.52 63.11 36 61.68L55.71 50.31C58.18 48.88 59.71 46.24 59.71 43.38L59.71 20.61C59.71 17.75 58.18 15.11 55.71 13.68L36 2.31C33.52 0.88 30.47 0.88 28 2.31Z" fill="#FFFFFF" fill-opacity="1.000000" fill-rule="evenodd"/>
	<path id="STROKE" d="M8.28 13.68C5.81 15.11 4.28 17.75 4.28 20.61L4.28 43.38C4.28 46.24 5.81 48.88 8.28 50.31L28 61.68C30.47 63.11 33.52 63.11 36 61.68L55.71 50.31C58.18 48.88 59.71 46.24 59.71 43.38L59.71 20.61C59.71 17.75 58.18 15.11 55.71 13.68L36 2.31C33.52 0.88 30.47 0.88 28 2.31L8.28 13.68ZM9.28 15.42C7.43 16.49 6.28 18.47 6.28 20.61L6.28 43.38C6.28 45.52 7.43 47.5 9.28 48.57L29 59.96C30.85 61.03 33.14 61.03 35 59.96L54.71 48.57C56.56 47.5 57.71 45.52 57.71 43.38L57.71 20.61C57.71 18.47 56.56 16.49 54.71 15.42L35 4.03C33.14 2.96 30.85 2.96 29 4.03L9.28 15.42Z" fill="#FC3A20" fill-opacity="1.000000" fill-rule="evenodd"/>
	<path id="fill" d="M30 9.15L13.21 18.84C11.97 19.56 11.21 20.88 11.21 22.31L11.21 41.68C11.21 43.11 11.97 44.43 13.21 45.15L30 54.84C31.23 55.56 32.76 55.56 34 54.84L50.78 45.15C52.02 44.43 52.78 43.11 52.78 41.68L52.78 22.31C52.78 20.88 52.02 19.56 50.78 18.84L34 9.15C32.76 8.43 31.23 8.43 30 9.15Z" fill="#FC3A20" fill-opacity="1.000000" fill-rule="evenodd"/>
	<rect id="Remove" rx="0.000000" width="29.000000" height="29.000000" transform="translate(17.500000 17.500000)" fill="#FFFFFF" fill-opacity="0"/>
	<g clip-path="url(#clip28_24535)">
		<path id="Vector" d="M23.83 23.83C24.01 23.66 24.25 23.56 24.5 23.56C24.74 23.56 24.98 23.66 25.16 23.83L32 30.67L38.83 23.83C38.92 23.74 39.02 23.67 39.14 23.61C39.25 23.57 39.38 23.53 39.5 23.53C39.63 23.53 39.75 23.56 39.87 23.6C39.99 23.65 40.09 23.72 40.18 23.81C40.27 23.9 40.34 24 40.39 24.12C40.43 24.24 40.46 24.36 40.45 24.49C40.45 24.61 40.42 24.74 40.37 24.85C40.32 24.97 40.25 25.07 40.16 25.16L33.32 32L40.16 38.83C40.25 38.92 40.32 39.02 40.37 39.14C40.42 39.25 40.45 39.38 40.45 39.5C40.46 39.63 40.43 39.75 40.39 39.87C40.34 39.99 40.27 40.09 40.18 40.18C40.09 40.27 39.99 40.34 39.87 40.39C39.75 40.43 39.63 40.46 39.5 40.46C39.38 40.46 39.25 40.42 39.14 40.38C39.02 40.32 38.92 40.25 38.83 40.16L32 33.32L25.16 40.16C24.98 40.32 24.74 40.42 24.5 40.41C24.26 40.4 24.03 40.31 23.85 40.14C23.68 39.96 23.58 39.73 23.58 39.49C23.58 39.25 23.67 39.01 23.83 38.83L30.67 32L23.83 25.16C23.66 24.98 23.56 24.75 23.56 24.5C23.56 24.25 23.66 24.01 23.83 23.83Z" fill="#FFFFFF" fill-opacity="1.000000" fill-rule="evenodd"/>
	</g>
</svg>
